<?xml version="1.0" encoding="UTF-8"?>
<svg id="Layer_1" data-name="Layer 1" xmlns="http://www.w3.org/2000/svg" viewBox="0 0 144 144">
  <defs>
    <style>
      .cls-1 {
        fill: #fff;
      }
    </style>
  </defs>
  <path class="cls-1" d="m71.91,96.56c-1.92-.08-3.84-.1-5.76-.26-1.8-.15-3.59-.4-5.38-.67-3.26-.49-6.44-1.29-9.55-2.36-4.05-1.39-7.87-3.21-11.31-5.71-3-2.18-5.53-4.76-7.28-7.98-.89-1.64-1.55-3.37-1.75-5.21-.13-1.14-.08-2.3-.07-3.45.03-3.46,1.5-6.42,3.55-9.16,1.98-2.64,4.5-4.73,7.31-6.52,4.28-2.72,8.97-4.55,13.92-5.81,3.36-.86,6.78-1.41,10.24-1.71,2.47-.21,4.95-.35,7.43-.27,1.87.06,3.75.2,5.61.36,2.79.24,5.55.7,8.28,1.34,3.72.87,7.33,2.07,10.76,3.71,3.67,1.76,7.04,3.94,9.85,6.85,2.35,2.44,4.13,5.2,4.96,8.45.93,3.64.54,7.18-1.08,10.59-.98,2.07-2.34,3.9-3.95,5.57-1.98,2.04-4.25,3.72-6.72,5.16-3.64,2.13-7.54,3.66-11.62,4.78-2.46.68-4.96,1.2-7.5,1.55-3.29.47-6.6.74-9.94.64,0,.03,0,.05,0,.08Zm-.45-4.35c1.29,0,2.58.03,3.87,0,2.32-.08,4.63-.34,6.92-.71,3.63-.59,7.17-1.49,10.59-2.82,4.32-1.68,8.31-3.88,11.56-7.16,1.36-1.37,2.49-2.9,3.29-4.64.88-1.92,1.25-3.93,1.03-6.02-.22-2.07-.99-3.96-2.14-5.7-1.44-2.17-3.34-3.94-5.48-5.46-3.47-2.46-7.33-4.18-11.41-5.44-4.1-1.27-8.31-2-12.59-2.34-2.68-.21-5.36-.22-8.05-.12-2.61.1-5.2.37-7.77.8-2.93.49-5.8,1.19-8.6,2.15-3.58,1.23-6.97,2.83-10.02,5.04-2.68,1.94-4.96,4.21-6.39,7.19-1.02,2.14-1.42,4.36-1.07,6.69.37,2.47,1.5,4.62,3.09,6.57,1.75,2.14,3.91,3.83,6.27,5.29,2.97,1.83,6.18,3.17,9.52,4.22,3.2,1,6.48,1.67,9.82,2.08,2.51.31,5.02.5,7.56.39Z"/>
</svg>