<?xml version="1.0" encoding="UTF-8"?>
<svg id="Layer_1" data-name="Layer 1" xmlns="http://www.w3.org/2000/svg" viewBox="0 0 144 144">
  <defs>
    <style>
      .cls-1 {
        fill: #fff;
      }
    </style>
  </defs>
  <path class="cls-1" d="m138.73,101.47c-1.52-1.82-3.04-3.64-4.55-5.46-3.87-4.66-7.73-9.32-11.6-13.98-4.34-5.23-8.68-10.46-13.01-15.68-.35-.42-.35-.42.06-.76,4.28-3.56,8.57-7.12,12.85-10.67.77-.64,1.55-1.29,2.32-1.93.13-.1.22-.19.08-.36-1.05-1.25-2.09-2.51-3.14-3.76-.03-.04-.07-.07-.13-.12-.09.07-.19.14-.28.21-4.85,4.02-9.69,8.04-14.54,12.05-.25.21-.53.4-.77.62-.17.16-.27.14-.41-.03-.69-.84-1.39-1.67-2.08-2.51-3.35-4.04-6.71-8.08-10.06-12.12-5.72-6.89-11.44-13.78-17.16-20.67-.11-.14-.2-.29-.3-.44-.06.01-.12.02-.18.03-.06.09-.1.21-.18.28-.83.7-1.68,1.38-2.51,2.08l-.48.52c-.45,0-.89,0-1.34,0l-.48-.52c-.83-.7-1.67-1.38-2.51-2.08-.08-.07-.12-.18-.18-.28-.06-.01-.12-.02-.18-.03-.1.15-.19.3-.3.44-5.72,6.89-11.44,13.78-17.16,20.67-3.35,4.04-6.71,8.08-10.06,12.12-.69.84-1.39,1.67-2.08,2.51-.14.17-.24.19-.41.03-.24-.22-.51-.41-.77-.62-4.85-4.02-9.7-8.04-14.54-12.05-.09-.07-.18-.14-.28-.21-.06.06-.1.09-.13.12-1.05,1.25-2.09,2.51-3.14,3.76-.14.17-.05.26.08.36.78.64,1.55,1.29,2.32,1.93,4.29,3.56,8.57,7.11,12.85,10.67.41.34.4.35.06.76-4.34,5.23-8.68,10.46-13.01,15.68-3.87,4.66-7.73,9.32-11.6,13.98-1.51,1.82-3.03,3.65-4.55,5.46-.18.21-.03.29.09.4.8.66,1.6,1.32,2.4,1.98.42.35.84.7,1.26,1.06.16.14.27.12.39-.05.13-.18.28-.36.43-.53,4.1-4.94,8.19-9.87,12.29-14.81,4.2-5.07,8.41-10.13,12.62-15.2,1.37-1.65,2.74-3.31,4.14-4.99,5.31,4.4,10.6,8.79,15.91,13.19,1.15-1.38,2.27-2.74,3.4-4.1-.16-.13-.27-.22-.39-.32-5.01-4.15-10.01-8.31-15.02-12.46-.49-.41-.5-.41-.09-.9,3.96-4.78,7.93-9.55,11.89-14.33,4.98-6.01,9.97-12.02,14.95-18.03,0,7.1-.01,14.19-.02,21.29,0,5.63,0,27.25,0,32.88,0,.58,0,.57-.58.57-5.91,0-11.81,0-17.72-.01-.13,0-.27,0-.45,0,0,1.6,0,3.2,0,4.84,6.26,0,12.5.01,18.76.02,0,1.99,0,3.94,0,5.89,0,5.98,0-4.03,0,1.95,0,5.82,0,11.65-.01,17.47,0,.21,0,.42,0,.62-.01.19.05.27.25.26.5,0,.99,0,1.49,0,.94,0,1.88,0,2.82.01.15,0,.3.03.3-.22-.01-2.15,0-4.3,0-6.45,0-5.5,0-10.99.01-16.49,0-6.17,0,3.65.01-2.52,0-.49,0-.5.48-.5,5.06,0,10.11,0,15.17,0,.91,0,1.83,0,2.74,0,.15,0,.26,0,.26-.21,0-1.48,0-2.97,0-4.45,0-.04-.01-.09-.02-.16-.11,0-.21,0-.32,0-5.72,0-11.43-.01-17.15-.02-.3,0-.6-.03-.89-.01-.21.01-.27-.05-.27-.26,0-.99,0-17.95,0-18.94,0-4.76,0-9.53,0-14.29,0-7.11,0-14.23.01-21.34,5.01,6.04,10.02,12.08,15.03,18.12,3.96,4.78,7.93,9.55,11.89,14.33.4.49.4.49-.09.9-5.01,4.15-10.01,8.31-15.02,12.46-.11.09-.23.19-.39.32,1.13,1.36,2.25,2.72,3.4,4.1,5.31-4.4,10.6-8.79,15.91-13.19,1.4,1.69,2.77,3.34,4.14,4.99,4.21,5.07,8.41,10.13,12.62,15.2,4.1,4.94,8.19,9.87,12.29,14.81.15.18.3.35.43.53.12.17.23.19.39.05.42-.36.84-.71,1.26-1.06.8-.66,1.6-1.32,2.4-1.98.13-.11.27-.19.09-.4Z"/>
</svg>