<?xml version="1.0" encoding="UTF-8"?>
<svg id="Layer_1" data-name="Layer 1" xmlns="http://www.w3.org/2000/svg" viewBox="0 0 144 144">
  <defs>
    <style>
      .cls-1 {
        fill: #fff;
      }
    </style>
  </defs>
  <path class="cls-1" d="m102.98,69.51l10.42-3.54-1.61-4.73-11.79,4.01-21.34-30.47h8.57v-6h-31.12v6h9.24l-20.5,29.28-6.89-8.58-3.9,3.13,7.8,9.71-23.56,33.64,4.1,2.87,22.72-32.45,6.89,8.58,3.9-3.13-7.8-9.71,21.06-30.07v30.9l-10.56-3.08-1.4,4.8,11.96,3.48v41.07h5v-39.61l10.56,3.08,1.25-4.3.28.81,11.8-4.01,23.56,33.64,4.1-2.87-22.72-32.45Zm-18.33.95l1.13,3.32-11.61-3.38v-33.32l20.9,29.85-10.42,3.54Z"/>
</svg>