<?xml version="1.0" encoding="UTF-8"?>
<svg id="Layer_1" data-name="Layer 1" xmlns="http://www.w3.org/2000/svg" viewBox="0 0 144 144">
  <defs>
    <style>
      .cls-1 {
        fill: #fff;
      }
    </style>
  </defs>
  <path class="cls-1" d="m102.36,27.4h-60.65c0,1.24,0,2.48-.02,3.72,0,.31,0,.63-.04.93-.04.31.05.38.31.38,3.96,0-.14,0,3.82,0,2.79,0,5.57,0,8.36,0,.25,0,.49,0,.81,0h6.92l-2.48,3.22c-1.65,2.09-3.81,6.14-5.18,9.6-1.87,4.74-3.1,9.71-3.9,14.83-.54,3.46-.9,6.95-1,10.46l-3.08-.95-1.48,4.78,4.48,1.38c0,.36,0,.73,0,1.09.06,2.25.23,4.5.41,6.74.26,3.16.74,6.27,1.38,9.35.87,4.2,2.06,8.26,3.7,12.14,1.51,3.57,3.34,6.9,5.77,9.72.54.63,1.13,1.19,1.72,1.75,1.38-.97,2.93-1.73,4.62-2.24-1.59-1.03-2.96-2.41-4.17-4.04-2.18-2.9-3.77-6.22-5.06-9.76-1.4-3.81-2.36-7.78-3.03-11.85-.56-3.38-.93-6.79-1.03-10.23-.01-.45-.01-.9-.02-1.35l1.65.51,1.48-4.78-3.12-.96c0-.39,0-.78.02-1.17.24-6.42,1.16-12.71,2.96-18.8.99-3.34,2.23-6.54,3.87-9.51,1.22-2.21,2.6-4.26,4.35-5.94,1.43-1.37,2.99-2.45,4.81-2.98.04-.01.09-.02.16-.04v36.84l-2.13-.66-1.48,4.78,3.6,1.11v38.22c.7-.09,1.42-.15,2.15-.15s1.4.06,2.08.14v-36.9l2.57.79,1.48-4.78-4.04-1.25v-38.16c.22.07.42.12.62.19,1.98.7,3.66,1.99,5.15,3.63,1.89,2.09,3.38,4.54,4.64,7.19,1.93,4.08,3.25,8.42,4.19,12.94.71,3.41,1.15,6.86,1.44,10.35.07.82.12,1.65.15,2.48l-1.87-.58-1.48,4.78,3.43,1.06c0,.85-.03,1.7-.05,2.54-.16,5.43-.85,10.79-2.12,16.02-1.11,4.56-2.62,8.91-4.84,12.89-1.31,2.34-2.82,4.47-4.72,6.18-.51.46-1.05.86-1.6,1.23,1.71.52,3.28,1.29,4.67,2.28,1.28-1.25,2.43-2.65,3.47-4.17,2.23-3.24,3.88-6.86,5.23-10.7,1.38-3.95,2.36-8.03,3.04-12.22.51-3.15.88-6.32,1.02-9.52.05-1.08.1-2.16.14-3.24l2.74.85,1.48-4.78-4.28-1.32c-.08-1.82-.13-3.65-.31-5.45-.24-2.53-.57-5.06-.99-7.56-.72-4.3-1.81-8.47-3.33-12.48-1.37-3.62-3.04-7.03-5.24-10.05-.12-.17-.24-.35-.39-.56l-2.15-2.96c.24,0,7.12,0,7.29,0,6.84,0,5.99,0,12.83.02.26,0,.34-.08.34-.4-.01-1.55,0-3.1,0-4.66Z"/>
</svg>