<?xml version="1.0" encoding="UTF-8"?>
<svg id="Layer_1" data-name="Layer 1" xmlns="http://www.w3.org/2000/svg" viewBox="0 0 144 144">
  <defs>
    <style>
      .cls-1 {
        fill: #fff;
      }
    </style>
  </defs>
  <path class="cls-1" d="m85.6,35.39c.15.21.26.39.39.56,2.21,3.02,3.87,6.43,5.24,10.05,1.52,4.01,2.62,8.18,3.33,12.48.42,2.5.75,5.03.99,7.56.21,2.21.25,4.45.36,6.68.12,2.43-.02,4.85-.13,7.27-.15,3.2-.51,6.37-1.02,9.52-.68,4.19-1.66,8.27-3.04,12.22-1.35,3.83-3,7.46-5.23,10.7-1.05,1.52-2.2,2.92-3.47,4.17-1.39-.98-2.96-1.76-4.67-2.28.55-.36,1.09-.77,1.6-1.23,1.9-1.72,3.42-3.84,4.72-6.18,2.22-3.98,3.73-8.34,4.84-12.89,1.27-5.24,1.96-10.59,2.12-16.02.1-3.42.1-6.86-.18-10.28-.28-3.49-.73-6.94-1.44-10.35-.94-4.52-2.25-8.86-4.19-12.94-1.26-2.65-2.74-5.11-4.64-7.19-1.49-1.64-3.17-2.94-5.15-3.63-.2-.07-.4-.12-.62-.19v80.3c-.68-.08-1.38-.14-2.08-.14s-1.44.06-2.15.15V33.43c-.08.02-.12.02-.16.04-1.81.52-3.38,1.6-4.81,2.98-1.75,1.68-3.13,3.73-4.35,5.94-1.64,2.97-2.88,6.17-3.87,9.51-1.8,6.09-2.72,12.38-2.96,18.8-.1,2.58-.07,5.17,0,7.76.1,3.44.47,6.85,1.03,10.23.67,4.07,1.64,8.04,3.03,11.85,1.29,3.53,2.89,6.85,5.06,9.76,1.22,1.62,2.58,3.01,4.17,4.04-1.69.51-3.24,1.28-4.62,2.24-.59-.56-1.18-1.13-1.72-1.75-2.43-2.82-4.26-6.15-5.77-9.72-1.64-3.87-2.83-7.94-3.7-12.14-.64-3.08-1.12-6.19-1.38-9.35-.18-2.24-.35-4.49-.41-6.74-.06-2.09.01-4.18.07-6.27.1-3.53.45-7.02,1-10.49.8-5.12,2.03-10.09,3.9-14.83,1.37-3.47,3.53-7.51,5.18-9.6l2.48-3.22h-6.92c-.31,0-.56,0-.81,0-2.79,0-5.57,0-8.36,0-3.96,0,.14-.01-3.82,0-.26,0-.35-.07-.31-.38.04-.31.04-.62.04-.93,0-1.24.01-2.48.02-3.72h60.65c0,1.55,0,3.1,0,4.66,0,.31-.08.4-.34.4-6.84-.01-5.99-.02-12.83-.02-.16,0-7.04,0-7.29,0"/>
</svg>