<?xml version="1.0" encoding="UTF-8"?>
<svg id="Layer_1" data-name="Layer 1" xmlns="http://www.w3.org/2000/svg" viewBox="0 0 144 144">
  <defs>
    <style>
      .cls-1 {
        fill: #fff;
      }
    </style>
  </defs>
  <path class="cls-1" d="m105.24,75.83c-.02-.51-.03-1.02-.05-1.53-.35-6.43-1.61-12.57-3.82-18.4-1.63-4.3-3.72-8.22-6.28-11.76-2.67-3.69-5.73-6.76-9.21-9.2-.17-.12-.34-.23-.57-.38h-.53c5.63-3.17,9.24-8,9.24-13.4h-4c0,7.31-9.38,13.26-20.92,13.26s-20.92-5.95-20.92-13.26h-4c0,5.42,3.63,10.26,9.29,13.43-.12.08-.21.14-.29.2-3.28,2.26-6.21,5.09-8.78,8.48-4.3,5.67-7.3,12.27-9.1,19.72-.96,3.98-1.53,8.04-1.68,12.2,0,.1,0,.19,0,.29l-3.82-1.27-1.58,4.74,5.41,1.8c.03.83.08,1.65.14,2.48.4,4.89,1.34,9.62,2.83,14.18,1.73,5.29,4.13,10.07,7.2,14.32,2.74,3.79,5.91,6.91,9.5,9.36l3.27,1.78c.83-1.39,1.9-2.63,3.16-3.68-2.69-1.19-5.22-2.77-7.56-4.84-3.81-3.37-6.9-7.58-9.33-12.55-2.29-4.69-3.81-9.74-4.64-15.13-.23-1.51-.39-3.03-.5-4.55l2.01.67,1.58-4.74-3.73-1.24c0-.25,0-.5,0-.75.22-6.55,1.45-12.8,3.79-18.69,1.63-4.12,3.73-7.84,6.32-11.12,2.23-2.82,4.71-5.22,7.5-7.12.84-.57,1.71-1.07,2.57-1.6.01.03.03.05.04.08-.03.07-.06.15-.11.21-2.06,2.86-3.6,6.14-4.89,9.6-1.76,4.74-2.92,9.71-3.68,14.83-.51,3.47-.85,6.97-.94,10.49-.02.76-.04,1.53-.05,2.3l-2.45-.82-1.58,4.74,4.08,1.36c.07,1.81.19,3.62.33,5.43.24,3.16.7,6.27,1.3,9.35.82,4.2,1.94,8.26,3.49,12.14,1.43,3.57,3.15,6.9,5.45,9.72.51.63,1.06,1.19,1.62,1.75,1.3-.97,2.77-1.73,4.36-2.24-1.5-1.03-2.79-2.41-3.94-4.04-2.06-2.9-3.56-6.22-4.78-9.76-1.32-3.81-2.23-7.78-2.86-11.85-.47-3.03-.79-6.08-.92-9.15l3.38,1.13,1.58-4.74-5.07-1.69c0-1.18.01-2.35.06-3.53.23-6.42,1.09-12.71,2.79-18.8.93-3.34,2.11-6.54,3.65-9.51,1.15-2.21,2.46-4.26,4.11-5.94.21-.22.44-.41.66-.62,1.31.21,2.66.36,4.03.42v36.81l-2.94-.98-1.58,4.74,4.52,1.51v35.4c.66-.09,1.34-.15,2.03-.15s1.32.06,1.97.14v-34.06l2.99,1,1.58-4.74-4.57-1.52v-38.17c1.36-.09,2.69-.25,3.97-.48.51.46,1.01.95,1.47,1.49,1.79,2.09,3.19,4.54,4.38,7.19,1.82,4.08,3.07,8.42,3.95,12.94.67,3.41,1.09,6.86,1.36,10.35.14,1.83.2,3.66.22,5.5l-3.41-1.14-1.58,4.74,4.92,1.64c-.18,5.27-.81,10.47-1.98,15.56-1.05,4.56-2.47,8.91-4.57,12.89-1.24,2.34-2.66,4.47-4.46,6.18-.48.46-.99.86-1.51,1.23,1.61.52,3.1,1.29,4.41,2.28,1.21-1.25,2.29-2.65,3.28-4.17,2.1-3.24,3.67-6.86,4.94-10.7,1.31-3.95,2.23-8.03,2.87-12.22.48-3.15.83-6.32.97-9.52,0-.07,0-.15,0-.22l2.63.88,1.58-4.74-4.05-1.35c0-.61-.02-1.22-.04-1.83-.11-2.23-.14-4.46-.34-6.68-.23-2.53-.54-5.06-.93-7.56-.68-4.3-1.71-8.47-3.15-12.48-1.3-3.62-2.87-7.03-4.95-10.05-.12-.17-.23-.35-.36-.56.08.02.13.03.18.05,6.18,3.49,11.03,8.87,14.61,16.01,2.34,4.66,3.9,9.71,4.78,15.1.31,1.92.51,3.86.62,5.81l-.87-.29-1.58,4.74,2.51.84c-.14,4.66-.83,9.22-2.09,13.67-1.64,5.79-4.12,10.95-7.49,15.45-2.67,3.56-5.76,6.44-9.27,8.6-1.06.65-2.14,1.21-3.25,1.7,1.21,1.01,2.25,2.2,3.06,3.54,2.58-1.43,4.57-2.54,4.75-2.68,2.25-1.69,4.32-3.69,6.21-5.95,2.24-2.68,4.2-5.65,5.86-8.93,1.73-3.4,3.09-7.02,4.12-10.84.81-3.02,1.39-6.11,1.74-9.26.15-1.33.24-2.65.3-3.98l5.05,1.68,1.58-4.74-6.59-2.2Z"/>
</svg>