<?xml version="1.0" encoding="UTF-8"?>
<svg id="Layer_1" data-name="Layer 1" xmlns="http://www.w3.org/2000/svg" viewBox="0 0 144 144">
  <defs>
    <style>
      .cls-1 {
        fill: #fff;
      }
    </style>
  </defs>
  <path class="cls-1" d="m85.4,60.94l-3.55,3.21,5.46,7.03-12.77,37.89c1.53.41,2.97,1.04,4.29,1.88l11.91-35.35,3.75,4.82,3.55-3.21-5.46-7.03,9.62-28.56,10.57,4.16,1.58-4.7-25.49-10.02-1.58,4.7,10.57,4.16-8.71,25.85-3.75-4.82Z"/>
  <path class="cls-1" d="m39.63,41.63l8.71,25.85-5.74-1.09-.8,4.92,8.37,1.59,12.74,37.81c1.34-.79,2.8-1.39,4.34-1.74l-11.81-35.06,5.74,1.09.8-4.92-8.37-1.59-9.62-28.56,10.57-4.16-1.58-4.7-25.49,10.02,1.58,4.7,10.57-4.16Z"/>
  <path class="cls-1" d="m68.6,61.98l-5.05-3.15-2.31,4.33,7.36,4.59v40.97c.68-.09,1.37-.16,2.08-.16.87,0,1.72.09,2.55.24v-38.16l5.05,3.15,2.31-4.33-7.36-4.59v-30.39h11.25v-5h-27.13v5h11.25v27.51Z"/>
  <path class="cls-1" d="m117.31,43.47l-2.97,3.83,8.62,7.81-16.37,21.07-1.99-5.92-4.35,1.71,2.91,8.63-23.82,30.67c1.31.9,2.5,1.99,3.52,3.25l22.13-28.49,1.99,5.91,4.35-1.71-2.91-8.63,18.08-23.28,8.62,7.81,2.97-3.83-20.78-18.84Z"/>
  <path class="cls-1" d="m62.04,111.28l-22.1-28.46,5.74-1.09-.8-4.92-8.37,1.59-18.08-23.28,8.62-7.81-2.97-3.83L3.28,62.31l2.97,3.83,8.62-7.81,16.37,21.07-5.74,1.09.8,4.92,8.37-1.59,23.85,30.7c1.02-1.26,2.2-2.35,3.52-3.25Z"/>
</svg>