<?xml version="1.0" encoding="UTF-8"?>
<svg id="Layer_1" data-name="Layer 1" xmlns="http://www.w3.org/2000/svg" viewBox="0 0 144 144">
  <defs>
    <style>
      .cls-1 {
        fill: #fff;
      }
    </style>
  </defs>
  <path class="cls-1" d="m65.89,79.92c-.27-2.18-.65-4.34-1.16-6.46-.84-3.52-1.98-6.88-3.57-10.02-1.08-2.13-2.33-4.09-3.86-5.79-1.24-1.39-2.61-2.56-4.16-3.4-2.55-1.39-5.19-1.73-7.91-.93-2.43.72-4.49,2.25-6.31,4.27-2.17,2.42-3.8,5.32-5.12,8.48-1.23,2.96-2.12,6.06-2.77,9.27-.48,2.35-.82,4.72-1,7.13-.12,1.61-.22,3.22-.27,4.84-.06,2.14.05,4.27.2,6.4.22,2.98.64,5.93,1.28,8.82.94,4.26,2.31,8.3,4.34,11.99,1.33,2.42,2.9,4.59,4.87,6.3,2.04,1.77,4.25,3.04,6.84,3.06.86,0,1.72.05,2.57-.06,1.37-.18,2.66-.74,3.89-1.51,2.41-1.51,4.34-3.69,5.96-6.27,1.87-2.96,3.23-6.25,4.27-9.75.8-2.68,1.39-5.42,1.76-8.23.2-1.54.39-3.08.5-4.64.12-1.65.13-3.31.19-4.96-.02,0-.04,0-.06,0,.08-2.87-.13-5.72-.48-8.56Zm-3,15.46c-.3,2.88-.81,5.7-1.55,8.46-.78,2.88-1.78,5.64-3.15,8.2-1.09,2.04-2.35,3.9-3.95,5.4-1.45,1.37-3.06,2.34-4.91,2.66-1.74.3-3.4-.04-5-.92-2.22-1.23-3.92-3.2-5.37-5.5-1.65-2.63-2.84-5.55-3.76-8.63-.72-2.41-1.24-4.89-1.61-7.41-.32-2.22-.53-4.45-.6-6.7-.07-2.31-.07-4.62.09-6.93.26-3.69.8-7.32,1.75-10.85.94-3.52,2.23-6.85,4.06-9.83,1.14-1.85,2.45-3.48,4.08-4.72,1.3-1,2.71-1.66,4.26-1.85,1.57-.19,3.06.13,4.5.89,1.3.69,2.44,1.66,3.47,2.83,2.45,2.81,4.09,6.24,5.35,9.96.99,2.94,1.66,6,2.11,9.13.28,1.97.48,3.96.53,5.96.03,1.11,0,2.22,0,3.34.08,2.18-.06,4.35-.29,6.51Z"/>
  <path class="cls-1" d="m126.51,88.54c.08-2.87-.13-5.72-.48-8.56-.27-2.18-.65-4.34-1.16-6.46-.84-3.52-1.98-6.88-3.57-10.02-1.08-2.13-2.33-4.09-3.86-5.79-1.24-1.39-2.61-2.56-4.16-3.4-2.55-1.39-5.19-1.73-7.91-.93-2.43.72-4.49,2.25-6.31,4.27-2.17,2.42-3.8,5.32-5.12,8.48-1.23,2.96-2.12,6.06-2.77,9.27-.48,2.35-.82,4.72-1,7.13-.12,1.61-.22,3.22-.27,4.84-.06,2.14.05,4.27.2,6.4.22,2.98.64,5.93,1.28,8.82.94,4.26,2.31,8.3,4.34,11.99,1.33,2.42,2.9,4.59,4.87,6.3,2.04,1.77,4.25,3.04,6.84,3.06.86,0,1.72.05,2.57-.06,1.37-.18,2.66-.74,3.89-1.51,2.41-1.51,4.34-3.69,5.96-6.27,1.87-2.96,3.23-6.25,4.27-9.75.8-2.68,1.39-5.42,1.76-8.23.2-1.54.39-3.08.5-4.64.12-1.65.13-3.31.19-4.96-.02,0-.04,0-.06,0Zm-3.48,6.9c-.3,2.88-.81,5.7-1.55,8.46-.78,2.88-1.78,5.65-3.15,8.2-1.09,2.04-2.35,3.9-3.95,5.4-1.45,1.37-3.06,2.34-4.91,2.66-1.74.3-3.4-.04-5-.92-2.22-1.23-3.92-3.2-5.37-5.5-1.65-2.63-2.84-5.55-3.76-8.63-.72-2.41-1.24-4.89-1.61-7.41-.32-2.22-.53-4.45-.6-6.7-.07-2.31-.07-4.63.09-6.93.26-3.69.8-7.32,1.75-10.85.94-3.52,2.23-6.85,4.06-9.83,1.14-1.85,2.45-3.48,4.08-4.72,1.3-1,2.71-1.66,4.26-1.85,1.57-.19,3.06.13,4.5.89,1.3.69,2.44,1.66,3.47,2.83,2.45,2.81,4.09,6.24,5.35,9.96.99,2.94,1.66,6,2.11,9.13.28,1.97.48,3.96.53,5.96.03,1.11,0,2.22,0,3.34.08,2.18-.06,4.35-.29,6.51Z"/>
  <path class="cls-1" d="m44.23,44.03c1.51,2.41,3.69,4.34,6.27,5.96,2.96,1.87,6.25,3.23,9.75,4.27,2.68.8,5.42,1.39,8.23,1.76,1.54.2,3.08.39,4.64.5,1.65.12,3.31.13,4.96.19,0-.02,0-.04,0-.06,2.87.08,5.72-.13,8.56-.48,2.18-.27,4.34-.65,6.46-1.16,3.52-.84,6.88-1.98,10.02-3.57,2.13-1.08,4.09-2.33,5.79-3.86,1.39-1.24,2.56-2.61,3.4-4.16,1.39-2.55,1.73-5.19.93-7.91-.72-2.43-2.25-4.49-4.27-6.31-2.42-2.17-5.32-3.8-8.48-5.12-2.96-1.23-6.06-2.12-9.27-2.77-2.35-.48-4.72-.82-7.13-1-1.61-.12-3.22-.22-4.84-.27-2.14-.06-4.27.05-6.4.2-2.98.22-5.93.63-8.82,1.28-4.26.94-8.3,2.31-11.99,4.34-2.42,1.33-4.59,2.9-6.3,4.87-1.77,2.04-3.04,4.25-3.06,6.84,0,.86-.05,1.72.06,2.57.18,1.37.74,2.66,1.51,3.89Zm3.13-9.43c1.23-2.22,3.2-3.92,5.5-5.37,2.63-1.65,5.55-2.84,8.63-3.76,2.41-.72,4.89-1.24,7.41-1.61,2.22-.32,4.45-.53,6.7-.6,2.31-.07,4.62-.07,6.93.09,3.69.26,7.32.8,10.85,1.75,3.52.94,6.85,2.23,9.83,4.06,1.85,1.14,3.48,2.45,4.72,4.08,1,1.3,1.66,2.71,1.85,4.26.19,1.57-.13,3.06-.89,4.5-.69,1.3-1.66,2.44-2.83,3.47-2.81,2.45-6.24,4.09-9.96,5.35-2.94.99-6,1.66-9.13,2.11-1.97.28-3.96.48-5.96.53-1.11.03-2.22,0-3.34,0-2.18.08-4.35-.06-6.51-.29-2.88-.3-5.7-.81-8.46-1.55-2.88-.78-5.65-1.78-8.2-3.15-2.04-1.09-3.9-2.35-5.4-3.95-1.37-1.45-2.34-3.06-2.66-4.91-.3-1.74.04-3.4.92-5Z"/>
  <path class="cls-1" d="m88.63,104.48c-.98-3.56-3.18-6.05-6.61-7.42-1.87-.75-3.81-.91-5.78-.55-2.4.44-4.45,1.55-6.08,3.37-2.26,2.51-3.14,5.47-2.71,8.8.24,1.84.94,3.52,2.07,4.99,2.18,2.82,5.08,4.23,8.63,4.31,1.28,0,2.52-.21,3.72-.66,2.89-1.09,4.97-3.06,6.22-5.88.6-1.35.87-2.77.87-4.25,0-.33,0-.67-.05-.99-.08-.58-.13-1.16-.28-1.72Z"/>
</svg>