<?xml version="1.0" encoding="UTF-8"?>
<svg id="Layer_1" data-name="Layer 1" xmlns="http://www.w3.org/2000/svg" viewBox="0 0 144 144">
  <defs>
    <style>
      .cls-1 {
        fill: #fff;
      }
    </style>
  </defs>
  <path class="cls-1" d="m71.99,92.68c-6.78-.16-12.32-2.85-16.48-8.23-2.17-2.8-3.51-6-3.96-9.52-.81-6.37.87-12.01,5.18-16.81,3.12-3.47,7.02-5.61,11.61-6.44,3.77-.68,7.48-.38,11.04,1.05,6.54,2.62,10.75,7.38,12.62,14.17.29,1.06.39,2.19.54,3.29.08.63.1,1.27.1,1.9-.01,2.81-.52,5.53-1.67,8.11-2.4,5.39-6.36,9.14-11.88,11.23-2.28.86-4.65,1.27-7.1,1.27Z"/>
</svg>