<?xml version="1.0" encoding="UTF-8"?>
<svg id="Layer_1" data-name="Layer 1" xmlns="http://www.w3.org/2000/svg" viewBox="0 0 144 144">
  <defs>
    <style>
      .cls-1 {
        fill: #fff;
      }
    </style>
  </defs>
  <path class="cls-1" d="m69.06,131.15c.03-.14.08-.27.08-.41,0-18.09,0-36.19,0-54.28,0-.35.02-.7.03-1.03-18.6,0-37.12,0-55.66,0,0-.19-.02-.32-.02-.44,0-2.1,0-4.19,0-6.29,0-.26.04-.37.34-.37,4.26.02,8.52.03,12.77.03,13.86,0,27.72,0,41.59,0,.29,0,.57,0,.91-.01.01-.17.04-.35.04-.53,0-17.92,0-35.85,0-53.77,0-.33.02-.66,0-.98-.01-.24.06-.32.31-.32,2.15,0,4.3.01,6.45,0,.32,0,.29.19.29.38,0,1.51,0,3.01,0,4.52,0,13.01,0,26.02,0,39.03,0,3.59.01,7.18.02,10.77,0,.29.03.57.05.97.39-.02.83-.06,1.27-.06,17.87,0,35.74,0,53.61,0,.84,0,.84,0,.84.86,0,1.82,0,3.64.01,5.46q0,.69-.71.69c-9.21,0-18.42,0-27.63,0-9.03,0-18.05,0-27.08,0-.3,0-.41.07-.4.39.01,11.42.02,22.85.02,34.27,0,6.45,0,12.89,0,19.34,0,.48-.02.97,0,1.45,0,.3-.12.38-.4.38-2.06-.01-4.11,0-6.17,0-.14,0-.29.04-.43.07l-.11-.11Z"/>
</svg>