<?xml version="1.0" encoding="UTF-8"?>
<svg id="Layer_1" data-name="Layer 1" xmlns="http://www.w3.org/2000/svg" viewBox="0 0 144 144">
  <defs>
    <style>
      .cls-1 {
        fill: #fff;
      }
    </style>
  </defs>
  <path class="cls-1" d="m115.26,116.37c-.08-.12-.13-.25-.23-.35-12.79-12.8-25.59-25.59-38.39-38.38-.25-.25-.48-.51-.71-.75-13.15,13.15-26.25,26.25-39.36,39.36-.14-.13-.24-.21-.33-.3-1.48-1.48-2.96-2.96-4.45-4.44-.18-.18-.23-.29-.02-.5,3.02-3,6.04-6,9.05-9.01,9.8-9.8,19.6-19.6,29.41-29.41.2-.2.4-.41.64-.65-.11-.13-.22-.27-.35-.4-12.67-12.68-25.35-25.35-38.02-38.02-.23-.23-.45-.48-.7-.69-.18-.16-.18-.27,0-.44,1.53-1.51,3.05-3.03,4.56-4.56.23-.23.34-.07.47.07,1.07,1.06,2.13,2.13,3.2,3.19,9.2,9.2,18.39,18.4,27.59,27.6,2.54,2.54,5.08,5.07,7.63,7.6.2.2.43.38.73.65.26-.29.54-.63.85-.94,12.64-12.64,25.27-25.28,37.91-37.91.59-.59.59-.59,1.2.02,1.29,1.29,2.58,2.57,3.87,3.85q.49.49-.01.99c-6.51,6.51-13.03,13.02-19.54,19.54-6.38,6.38-12.76,12.77-19.15,19.15-.22.22-.24.34,0,.56,8.09,8.07,16.17,16.14,24.25,24.22,4.56,4.56,9.12,9.11,13.67,13.67.34.34.67.7,1.02,1.03.21.21.18.36-.02.55-1.46,1.45-2.92,2.9-4.37,4.36-.1.1-.17.23-.25.35h-.16Z"/>
</svg>