<?xml version="1.0" encoding="UTF-8"?>
<svg id="Layer_1" data-name="Layer 1" xmlns="http://www.w3.org/2000/svg" viewBox="0 0 144 144">
  <defs>
    <style>
      .cls-1 {
        fill: #fff;
      }
    </style>
  </defs>
  <path class="cls-1" d="m74.63,77.75c0,5.38,0,10.76,0,16.14,0,7.6,0,15.2,0,22.8,0,.62.13.59-.58.58-1.47-.01-2.93,0-4.4,0-.39,0-.4.01-.4-.39l-.02-43.52v-41.35c-.24,0-.48,0-.71,0-13.38,0-26.77,0-40.15,0-.42,0-.84,0-1.26,0-.14,0-.26,0-.26-.19,0-1.69,0-3.38,0-5.12.17,0,.32,0,.46,0,9.25,0,18.49,0,27.74,0,20.33,0,40.65,0,60.98,0,.36,0,.73.04,1.09.07v5.16c-.16.03-.31.08-.47.08-13.21,0-26.43,0-39.64,0-.71,0-1.42.03-2.12.03-.21,0-.27.07-.26.28,0,7.98,0,15.96,0,23.94,0,5.02,0,10.04,0,15.06,0,.16-.01.31-.02.53m42.44-44.77s-.03,0-.04-.01v3.52s.03,0,.04,0v-3.51Z"/>
</svg>