<?xml version="1.0" encoding="UTF-8"?>
<svg id="Layer_1" data-name="Layer 1" xmlns="http://www.w3.org/2000/svg" viewBox="0 0 144 144">
  <defs>
    <style>
      .cls-1 {
        fill: #fff;
      }
    </style>
  </defs>
  <path class="cls-1" d="m29.4,26.79c.36-.02.73-.07,1.09-.07,20.33,0,40.65,0,60.98,0,9.25,0,18.49,0,27.74,0,.15,0,.29,0,.46,0,0,1.74,0,3.43,0,5.12,0,.19-.12.2-.26.19-.42,0-.84,0-1.26,0-13.38,0-26.77,0-40.15,0-.24,0-.47,0-.71,0,0,13.81,0,27.57,0,41.35.08.02.15.03.21.05,6.05,1.66,12.09,3.33,18.14,4.99,4.93,1.36,9.86,2.72,14.8,4.08,1.9.52,3.8,1.05,5.7,1.57.19.05.29.11.22.35-.43,1.52-.85,3.04-1.26,4.56-.07.27-.18.29-.42.23-2.68-.75-5.37-1.48-8.06-2.22-4.05-1.11-8.1-2.22-12.15-3.34-5.36-1.48-10.73-2.96-16.09-4.44-.36-.1-.72-.2-1.11-.3v.49c0,12.5,0,25,0,37.5,0,.4,0,.39-.4.39-1.47,0-2.93-.02-4.4,0-.71,0-.58.04-.58-.58,0-7.6,0-15.2,0-22.8,0-5.38,0-10.76,0-16.14,0-.23-.05-.35-.3-.41-2.08-.56-4.15-1.14-6.22-1.71-4.83-1.33-9.65-2.65-14.48-3.98-5.04-1.39-10.07-2.78-15.11-4.17-1.01-.28-2.03-.56-3.06-.84.01-.06.02-.11.03-.16.39-1.43.79-2.87,1.18-4.3.19-.7.18-.7.88-.51,7.48,2.06,14.95,4.12,22.43,6.18,4.73,1.3,9.46,2.6,14.19,3.91.15.04.3.06.47.1,0-.22-.02-.37-.02-.53,0-5.02,0-10.04,0-15.06,0-7.98,0-15.96,0-23.94,0-.21-.05-.28-.26-.28-.71,0-1.42-.03-2.12-.03-13.21,0-26.43,0-39.64,0-.16,0-.31-.05-.47-.08v-5.16Zm.08,3.81s.03,0,.04,0v-3.52s-.03,0-.04.01v3.51Z"/>
</svg>