<?xml version="1.0" encoding="UTF-8"?>
<svg id="Layer_1" data-name="Layer 1" xmlns="http://www.w3.org/2000/svg" viewBox="0 0 144 144">
  <defs>
    <style>
      .cls-1 {
        fill: #fff;
      }
    </style>
  </defs>
  <path class="cls-1" d="m26.86,33.73c.48,0,.96.01,1.43.01,12.96,0,25.93,0,38.89,0,.11,0,.22,0,.34,0v25.36c-.26-.07-.52-.14-.77-.21-8.5-2.34-17-4.67-25.5-7.01-3.2-.88-6.41-1.76-9.61-2.65-.21-.06-.3-.01-.36.21-.4,1.49-.81,2.98-1.23,4.46-.06.22.09.23.22.26,1.84.5,3.69,1.01,5.53,1.51,4.07,1.12,8.14,2.23,12.2,3.35,4.07,1.12,8.14,2.24,12.2,3.35,2.33.64,4.66,1.28,7,1.91.27.07.36.17.36.46-.01,4.33,0,8.66,0,12.98v.35c-.78-.21-1.53-.41-2.28-.62-5.09-1.4-10.17-2.79-15.26-4.19-5.98-1.64-11.95-3.29-17.93-4.93-.72-.2-.72-.2-.92.55-.36,1.31-.71,2.61-1.09,3.91-.07.23-.01.3.2.35,3.51.95,7.03,1.91,10.54,2.87,5.51,1.51,11.01,3.03,16.52,4.54,3.28.9,6.56,1.81,9.85,2.7.29.08.39.18.39.5-.01,10.33,0,20.66,0,31,0,.2,0,.39,0,.59h5.09c.02-.55.04-1.09.04-1.64,0-9.52,0-19.05,0-28.57v-.34c12.06,3.31,24.08,6.61,36.14,9.93.45-1.65.9-3.28,1.36-4.92-1.5-.41-2.96-.8-4.42-1.2-5.45-1.5-10.9-3-16.35-4.5-5.28-1.45-10.55-2.9-15.83-4.35-.19-.05-.38-.14-.57-.16-.29-.03-.33-.18-.33-.44,0-4.33,0-8.66,0-12.98v-.34c.53.14,1,.27,1.48.4,4.36,1.2,8.71,2.39,13.07,3.59,5.52,1.52,11.03,3.03,16.55,4.55,1.57.43,3.15.86,4.72,1.31.25.07.36,0,.42-.24.37-1.35.74-2.71,1.11-4.06.05-.18.09-.36.14-.54-3.54-.97-7.05-1.94-10.56-2.9-5-1.37-10-2.75-15-4.12-3.89-1.07-7.77-2.14-11.66-3.2-.21-.06-.28-.14-.28-.36,0-8.42.01-16.83.01-25.25,0-.3.02-.6,0-.9-.01-.24.06-.32.31-.32,4.38,0,8.76-.02,13.13-.02,8.84,0,17.67,0,26.51,0,.65,0,.64,0,.65-.63,0-1.4.01-2.79.02-4.19,0-.09-.02-.17-.03-.28-.52,0-1.02,0-1.52,0-18.31,0-36.62,0-54.93,0-9.45,0-18.91,0-28.36,0-.54,0-1.07,0-1.61-.01v5.09Z"/>
</svg>