<?xml version="1.0" encoding="UTF-8"?>
<svg id="Layer_1" data-name="Layer 1" xmlns="http://www.w3.org/2000/svg" viewBox="0 0 144 144">
  <defs>
    <style>
      .cls-1 {
        fill: #fff;
      }
    </style>
  </defs>
  <path class="cls-1" d="m68.63,27.63c.08.08.14.19.23.24.95.53,1.9,1.04,2.85,1.57.2.11.35.11.55,0,1.05-.59,2.1-1.17,3.19-1.77.23.41.46.8.68,1.2,4.42,8,8.83,15.99,13.25,23.99,2.84,5.14,5.68,10.27,8.51,15.41.15.26.25.26.5.13,2.99-1.66,5.98-3.31,8.97-4.96,2.75-1.52,5.5-3.03,8.24-4.55.49-.27.49-.27.76.23.72,1.3,1.44,2.6,2.17,3.89.11.2.11.3-.11.41-4.89,2.69-9.77,5.39-14.66,8.08-.96.53-1.92,1.06-2.88,1.58-.2.1-.23.18-.12.38,1.58,2.85,3.15,5.7,4.72,8.55,4.82,8.74,9.65,17.48,14.47,26.21,1.01,1.83,2.03,3.66,3.04,5.49.02.03.04.07.06.12-.05.05-.1.1-.15.13-1.43.79-2.86,1.57-4.29,2.37-.19.1-.25.01-.32-.12-.27-.48-.53-.96-.8-1.44-3.53-6.39-7.06-12.78-10.59-19.17-2.94-5.33-5.88-10.65-8.83-15.98-.65-1.18-1.31-2.35-1.95-3.53-.12-.23-.22-.26-.46-.13-4.87,2.7-9.75,5.38-14.63,8.07-.99.54-1.97,1.09-2.95,1.64-.04.02-.09.04-.16.07-.15-.26-.3-.52-.44-.78-.67-1.22-1.34-2.44-2.03-3.66-.09-.17-.06-.24.09-.32,3.53-1.94,7.05-3.89,10.58-5.83,2.39-1.32,4.78-2.63,7.17-3.95.02,0,.03-.03.08-.08-7.12-12.88-14.24-25.77-21.4-38.74-.15.26-.25.43-.35.61-3.91,7.09-7.83,14.18-11.74,21.27-3,5.43-6,10.86-9,16.3-.31.55-.3.55.26.86,5.7,3.14,11.39,6.29,17.09,9.43.13.07.26.14.44.24-.85,1.55-1.71,3.09-2.57,4.67-6.04-3.33-12.06-6.65-18.09-9.98-1.06,1.92-2.1,3.8-3.14,5.68-3.18,5.76-6.37,11.53-9.55,17.29-3.1,5.62-6.2,11.23-9.3,16.85-.11.2-.23.4-.32.61-.09.18-.19.23-.38.12-.47-.27-.95-.54-1.43-.8-.91-.5-1.82-.99-2.73-1.49-.15-.08-.3-.13-.17-.37,1.16-2.07,2.3-4.14,3.45-6.22,2.93-5.3,5.86-10.6,8.78-15.9,3.28-5.95,6.57-11.89,9.85-17.84.26-.47.26-.48-.2-.74-4.87-2.69-9.75-5.39-14.62-8.08-.88-.49-1.76-.98-2.64-1.46-.14-.08-.25-.14-.14-.34.8-1.43,1.59-2.86,2.38-4.28.02-.04.06-.08.11-.15.11.05.21.1.31.16,5.51,3.04,11.03,6.08,16.54,9.12.29.16.59.29.87.46.2.12.29.09.39-.11.52-.95,1.05-1.9,1.57-2.85,2.54-4.59,5.08-9.19,7.62-13.78,4.33-7.84,8.66-15.68,12.99-23.51.08-.15.14-.32.21-.49.06,0,.12,0,.18,0Z"/>
</svg>